REM DIRINDEX 1\2\6,1\2\7,1\2\8,1\2\9,1\3\10,1\3\11,1\4\12,1\4\13,1\4\14,1\5\15,1\5\16,1\5\17
REM DIRNAME cjc029,folder01,folder02,folder03,folder04,folder05,folder06,folder07,folder08,folder09,folder10,folder11,folder12,folder13,folder14,folder15,folder16
TITLE ""
FILE "1400_3_sec14_1384_1400.mp3" MP3
  TRACK 01 AUDIO
    TITLE "0:"
    INDEX 01 00:00:00
  TRACK 02 AUDIO
    TITLE "17:cjc029_7209"
    INDEX 01 00:00:15
  TRACK 03 AUDIO
    TITLE "0:"
    INDEX 01 00:01:50
  TRACK 04 AUDIO
    TITLE "16:cjc029_7210"
    INDEX 01 00:01:54
  TRACK 05 AUDIO
    TITLE "0:"
    INDEX 01 00:02:51
  TRACK 06 AUDIO
    TITLE "17:cjc029_7211"
    INDEX 01 00:03:51
  TRACK 07 AUDIO
    TITLE "0:"
    INDEX 01 00:05:48
  TRACK 08 AUDIO
    TITLE "16:cjc029_7212"
    INDEX 01 00:05:52
  TRACK 09 AUDIO
    TITLE "0:"
    INDEX 01 00:06:71
  TRACK 10 AUDIO
    TITLE "17:cjc029_7213"
    INDEX 01 00:07:56
  TRACK 11 AUDIO
    TITLE "0:"
    INDEX 01 00:09:14
  TRACK 12 AUDIO
    TITLE "16:cjc029_7214"
    INDEX 01 00:09:18
  TRACK 13 AUDIO
    TITLE "0:"
    INDEX 01 00:10:35
  TRACK 14 AUDIO
    TITLE "17:cjc029_7215"
    INDEX 01 00:11:21
  TRACK 15 AUDIO
    TITLE "0:"
    INDEX 01 00:13:59
  TRACK 16 AUDIO
    TITLE "16:cjc029_7216"
    INDEX 01 00:13:67
  TRACK 17 AUDIO
    TITLE "0:"
    INDEX 01 00:15:27
  TRACK 18 AUDIO
    TITLE "17:cjc029_7217"
    INDEX 01 00:16:14
  TRACK 19 AUDIO
    TITLE "0:"
    INDEX 01 00:17:41
  TRACK 20 AUDIO
    TITLE "16:cjc029_7218"
    INDEX 01 00:17:51
  TRACK 21 AUDIO
    TITLE "0:"
    INDEX 01 00:18:72
  TRACK 22 AUDIO
    TITLE "17:cjc029_7219"
    INDEX 01 00:19:56
  TRACK 23 AUDIO
    TITLE "0:"
    INDEX 01 00:21:23
  TRACK 24 AUDIO
    TITLE "16:cjc029_7220"
    INDEX 01 00:21:29
  TRACK 25 AUDIO
    TITLE "0:"
    INDEX 01 00:22:44
  TRACK 26 AUDIO
    TITLE "17:cjc029_7221"
    INDEX 01 00:23:26
  TRACK 27 AUDIO
    TITLE "0:"
    INDEX 01 00:24:35
  TRACK 28 AUDIO
    TITLE "16:cjc029_7222"
    INDEX 01 00:24:47
  TRACK 29 AUDIO
    TITLE "0:"
    INDEX 01 00:25:48
  TRACK 30 AUDIO
    TITLE "17:cjc029_7223"
    INDEX 01 00:26:32
  TRACK 31 AUDIO
    TITLE "0:"
    INDEX 01 00:27:65
  TRACK 32 AUDIO
    TITLE "16:cjc029_7224"
    INDEX 01 00:27:69
  TRACK 33 AUDIO
    TITLE "0:"
    INDEX 01 00:29:29
  TRACK 34 AUDIO
    TITLE "17:cjc029_7225"
    INDEX 01 00:30:10
  TRACK 35 AUDIO
    TITLE "0:"
    INDEX 01 00:31:26
  TRACK 36 AUDIO
    TITLE "16:cjc029_7226"
    INDEX 01 00:31:35
  TRACK 37 AUDIO
    TITLE "0:"
    INDEX 01 00:32:56
  TRACK 38 AUDIO
    TITLE "17:cjc029_7227"
    INDEX 01 00:33:38
  TRACK 39 AUDIO
    TITLE "0:"
    INDEX 01 00:36:50
  TRACK 40 AUDIO
    TITLE "16:cjc029_7228"
    INDEX 01 00:36:54
  TRACK 41 AUDIO
    TITLE "0:"
    INDEX 01 00:37:65
  TRACK 42 AUDIO
    TITLE "17:cjc029_7229"
    INDEX 01 00:38:51
  TRACK 43 AUDIO
    TITLE "0:"
    INDEX 01 00:40:05
  TRACK 44 AUDIO
    TITLE "16:cjc029_7230"
    INDEX 01 00:40:11
  TRACK 45 AUDIO
    TITLE "0:"
    INDEX 01 00:41:36
  TRACK 46 AUDIO
    TITLE "17:cjc029_7231"
    INDEX 01 00:42:18
  TRACK 47 AUDIO
    TITLE "0:"
    INDEX 01 00:44:14
  TRACK 48 AUDIO
    TITLE "16:cjc029_7232"
    INDEX 01 00:44:22
  TRACK 49 AUDIO
    TITLE "0:"
    INDEX 01 00:45:32
  TRACK 50 AUDIO
    TITLE "17:cjc029_7233"
    INDEX 01 00:46:13
  TRACK 51 AUDIO
    TITLE "0:"
    INDEX 01 00:47:23
  TRACK 52 AUDIO
    TITLE "16:cjc029_7234"
    INDEX 01 00:47:32
  TRACK 53 AUDIO
    TITLE "0:"
    INDEX 01 00:48:49
  TRACK 54 AUDIO
    TITLE "17:cjc029_7235"
    INDEX 01 00:49:33
  TRACK 55 AUDIO
    TITLE "0:"
    INDEX 01 00:50:66
  TRACK 56 AUDIO
    TITLE "16:cjc029_7236"
    INDEX 01 00:51:03
  TRACK 57 AUDIO
    TITLE "0:"
    INDEX 01 00:52:06
  TRACK 58 AUDIO
    TITLE "17:cjc029_7237"
    INDEX 01 00:52:65
  TRACK 59 AUDIO
    TITLE "0:"
    INDEX 01 00:54:15
  TRACK 60 AUDIO
    TITLE "16:cjc029_7238"
    INDEX 01 00:54:21
  TRACK 61 AUDIO
    TITLE "0:"
    INDEX 01 00:55:32
  TRACK 62 AUDIO
    TITLE "17:cjc029_7239"
    INDEX 01 00:56:14
  TRACK 63 AUDIO
    TITLE "0:"
    INDEX 01 00:57:29
  TRACK 64 AUDIO
    TITLE "16:cjc029_7240"
    INDEX 01 00:57:33
  TRACK 65 AUDIO
    TITLE "0:"
    INDEX 01 00:58:52
  TRACK 66 AUDIO
    TITLE "17:cjc029_7241"
    INDEX 01 00:59:39
  TRACK 67 AUDIO
    TITLE "0:"
    INDEX 01 01:00:62
  TRACK 68 AUDIO
    TITLE "16:cjc029_7242"
    INDEX 01 01:00:66
  TRACK 69 AUDIO
    TITLE "0:"
    INDEX 01 01:02:14
